<svg width="54" height="54" viewBox="0 0 54 54" fill="none" xmlns="http://www.w3.org/2000/svg">
<g filter="url(#filter0_d)">
<path d="M27 0.78125C13.1895 0.78125 2 11.6211 2 25C2 38.3789 13.1895 49.2188 27 49.2188C40.8105 49.2188 52 38.3789 52 25C52 11.6211 40.8105 0.78125 27 0.78125ZM27 44.5312C15.881 44.5312 6.83871 35.7715 6.83871 25C6.83871 14.2285 15.881 5.46875 27 5.46875C38.119 5.46875 47.1613 14.2285 47.1613 25C47.1613 35.7715 38.119 44.5312 27 44.5312ZM37.6452 29.7461C35.0343 30.5566 31.1532 31.0254 27 31.0254C22.8468 31.0254 18.9758 30.5566 16.3548 29.7461C15.3569 29.4434 14.3992 30.2734 14.5706 31.2402C15.3669 35.8398 21.7581 39.0527 27 39.0527C32.2419 39.0527 38.623 35.8398 39.4294 31.2402C39.5907 30.2832 38.6532 29.4434 37.6452 29.7461ZM18.9355 23.4375C20.7198 23.4375 22.1613 22.041 22.1613 20.3125C22.1613 18.584 20.7198 17.1875 18.9355 17.1875C17.1512 17.1875 15.7097 18.584 15.7097 20.3125C15.7097 22.041 17.1512 23.4375 18.9355 23.4375ZM35.0645 23.4375C36.8488 23.4375 38.2903 22.041 38.2903 20.3125C38.2903 18.584 36.8488 17.1875 35.0645 17.1875C33.2802 17.1875 31.8387 18.584 31.8387 20.3125C31.8387 22.041 33.2802 23.4375 35.0645 23.4375Z" fill="#24FF00"/>
</g>
<defs>
<filter id="filter0_d" x="0" y="0" width="54" height="54" filterUnits="userSpaceOnUse" color-interpolation-filters="sRGB">
<feFlood flood-opacity="0" result="BackgroundImageFix"/>
<feColorMatrix in="SourceAlpha" type="matrix" values="0 0 0 0 0 0 0 0 0 0 0 0 0 0 0 0 0 0 127 0"/>
<feOffset dy="2"/>
<feGaussianBlur stdDeviation="1"/>
<feColorMatrix type="matrix" values="0 0 0 0 0 0 0 0 0 0 0 0 0 0 0 0 0 0 0.25 0"/>
<feBlend mode="normal" in2="BackgroundImageFix" result="effect1_dropShadow"/>
<feBlend mode="normal" in="SourceGraphic" in2="effect1_dropShadow" result="shape"/>
</filter>
</defs>
</svg>
