<svg width="358" height="49" viewBox="0 0 358 49" fill="none" xmlns="http://www.w3.org/2000/svg">
<path d="M102 0C88.1895 0 77 10.8399 77 24.2188C77 37.5976 88.1895 48.4375 102 48.4375C115.811 48.4375 127 37.5976 127 24.2188C127 10.8399 115.811 0 102 0ZM102 43.75C90.881 43.75 81.8387 34.9902 81.8387 24.2188C81.8387 13.4473 90.881 4.6875 102 4.6875C113.119 4.6875 122.161 13.4473 122.161 24.2188C122.161 34.9902 113.119 43.75 102 43.75ZM93.9355 22.6562C95.7198 22.6562 97.1613 21.2598 97.1613 19.5312C97.1613 17.8027 95.7198 16.4062 93.9355 16.4062C92.1512 16.4062 90.7097 17.8027 90.7097 19.5312C90.7097 21.2598 92.1512 22.6562 93.9355 22.6562ZM110.064 16.4062C108.28 16.4062 106.839 17.8027 106.839 19.5312C106.839 21.2598 108.28 22.6562 110.064 22.6562C111.849 22.6562 113.29 21.2598 113.29 19.5312C113.29 17.8027 111.849 16.4062 110.064 16.4062ZM102 28.9062C97.9476 28.9062 94.1371 30.6348 91.5363 33.6524C90.6794 34.6485 90.8206 36.1231 91.8488 36.9532C92.877 37.7735 94.3992 37.6464 95.256 36.6503C96.9294 34.707 99.3891 33.584 102 33.584C104.611 33.584 107.071 34.6972 108.744 36.6503C109.56 37.5976 111.073 37.8125 112.151 36.9532C113.179 36.1231 113.31 34.6485 112.464 33.6524C109.863 30.6348 106.052 28.9062 102 28.9062Z" fill="#FF6B00"/>
<path d="M25 0C11.1895 0 0 10.8399 0 24.2188C0 37.5976 11.1895 48.4375 25 48.4375C38.8105 48.4375 50 37.5976 50 24.2188C50 10.8399 38.8105 0 25 0ZM25 43.75C13.881 43.75 4.83871 34.9902 4.83871 24.2188C4.83871 13.4473 13.881 4.6875 25 4.6875C36.119 4.6875 45.1613 13.4473 45.1613 24.2188C45.1613 34.9902 36.119 43.75 25 43.75ZM20.1613 19.5312C20.1613 17.8027 18.7198 16.4062 16.9355 16.4062C15.1512 16.4062 13.7097 17.8027 13.7097 19.5312C13.7097 21.2598 15.1512 22.6562 16.9355 22.6562C18.7198 22.6562 20.1613 21.2598 20.1613 19.5312ZM33.0645 16.4062C31.2802 16.4062 29.8387 17.8027 29.8387 19.5312C29.8387 21.2598 31.2802 22.6562 33.0645 22.6562C34.8488 22.6562 36.2903 21.2598 36.2903 19.5312C36.2903 17.8027 34.8488 16.4062 33.0645 16.4062ZM25 27.3438C21.4113 27.3438 16.0484 29.4239 15.3427 33.3204C15.1411 34.4727 16.25 35.4199 17.4093 35.0878C20.5544 34.1503 23.3972 33.5938 25 33.5938C26.6028 33.5938 29.4456 34.1503 32.5907 35.0878C33.7399 35.4296 34.8589 34.4727 34.6573 33.3204C33.9516 29.4239 28.5887 27.3438 25 27.3438Z" fill="#FB1616"/>
<path d="M333 0C319.189 0 308 10.8399 308 24.2188C308 37.5976 319.189 48.4375 333 48.4375C346.811 48.4375 358 37.5976 358 24.2188C358 10.8399 346.811 0 333 0ZM333 43.75C321.881 43.75 312.839 34.9902 312.839 24.2188C312.839 13.4473 321.881 4.6875 333 4.6875C344.119 4.6875 353.161 13.4473 353.161 24.2188C353.161 34.9902 344.119 43.75 333 43.75ZM343.645 28.9648C341.034 29.7753 337.153 30.2442 333 30.2442C328.847 30.2442 324.976 29.7753 322.355 28.9648C321.357 28.6621 320.399 29.4922 320.571 30.459C321.367 35.0585 327.758 38.2715 333 38.2715C338.242 38.2715 344.623 35.0585 345.429 30.459C345.591 29.502 344.653 28.6621 343.645 28.9648ZM324.935 22.6562C326.72 22.6562 328.161 21.2598 328.161 19.5312C328.161 17.8027 326.72 16.4062 324.935 16.4062C323.151 16.4062 321.71 17.8027 321.71 19.5312C321.71 21.2598 323.151 22.6562 324.935 22.6562ZM341.064 22.6562C342.849 22.6562 344.29 21.2598 344.29 19.5312C344.29 17.8027 342.849 16.4062 341.064 16.4062C339.28 16.4062 337.839 17.8027 337.839 19.5312C337.839 21.2598 339.28 22.6562 341.064 22.6562Z" fill="#24FF00"/>
<path d="M179 0C165.189 0 154 10.8399 154 24.2188C154 37.5976 165.189 48.4375 179 48.4375C192.811 48.4375 204 37.5976 204 24.2188C204 10.8399 192.811 0 179 0ZM179 43.75C167.881 43.75 158.839 34.9902 158.839 24.2188C158.839 13.4473 167.881 4.6875 179 4.6875C190.119 4.6875 199.161 13.4473 199.161 24.2188C199.161 34.9902 190.119 43.75 179 43.75ZM170.935 22.6562C172.72 22.6562 174.161 21.2598 174.161 19.5312C174.161 17.8027 172.72 16.4062 170.935 16.4062C169.151 16.4062 167.71 17.8027 167.71 19.5312C167.71 21.2598 169.151 22.6562 170.935 22.6562ZM187.064 16.4062C185.28 16.4062 183.839 17.8027 183.839 19.5312C183.839 21.2598 185.28 22.6562 187.064 22.6562C188.849 22.6562 190.29 21.2598 190.29 19.5312C190.29 17.8027 188.849 16.4062 187.064 16.4062ZM187.871 30.4688H170.129C168.798 30.4688 167.71 31.5234 167.71 32.8125C167.71 34.1015 168.798 35.1562 170.129 35.1562H187.871C189.202 35.1562 190.29 34.1015 190.29 32.8125C190.29 31.5234 189.202 30.4688 187.871 30.4688Z" fill="#FAFF00"/>
<path d="M256 0C242.189 0 231 10.8399 231 24.2188C231 37.5976 242.189 48.4375 256 48.4375C269.811 48.4375 281 37.5976 281 24.2188C281 10.8399 269.811 0 256 0ZM256 43.75C244.881 43.75 235.839 34.9902 235.839 24.2188C235.839 13.4473 244.881 4.6875 256 4.6875C267.119 4.6875 276.161 13.4473 276.161 24.2188C276.161 34.9902 267.119 43.75 256 43.75ZM247.935 22.6562C249.72 22.6562 251.161 21.2598 251.161 19.5312C251.161 17.8027 249.72 16.4062 247.935 16.4062C246.151 16.4062 244.71 17.8027 244.71 19.5312C244.71 21.2598 246.151 22.6562 247.935 22.6562ZM264.064 22.6562C265.849 22.6562 267.29 21.2598 267.29 19.5312C267.29 17.8027 265.849 16.4062 264.064 16.4062C262.28 16.4062 260.839 17.8027 260.839 19.5312C260.839 21.2598 262.28 22.6562 264.064 22.6562ZM264.468 29.746C262.371 32.1875 259.276 33.5938 256 33.5938C252.724 33.5938 249.629 32.1972 247.532 29.746C246.675 28.75 245.143 28.623 244.125 29.4433C243.097 30.2734 242.966 31.748 243.812 32.7441C246.837 36.2597 251.282 38.2715 256 38.2715C260.718 38.2715 265.163 36.2597 268.188 32.7441C269.044 31.748 268.903 30.2734 267.875 29.4433C266.857 28.623 265.325 28.75 264.468 29.746Z" fill="#ADFF00"/>
</svg>
