<svg width="52" height="52" viewBox="0 0 52 52" fill="none" xmlns="http://www.w3.org/2000/svg">
<g filter="url(#filter0_d)">
<path d="M26 0.78125C12.1895 0.78125 1 11.6211 1 25C1 38.3789 12.1895 49.2188 26 49.2188C39.8105 49.2188 51 38.3789 51 25C51 11.6211 39.8105 0.78125 26 0.78125ZM26 44.5312C14.881 44.5312 5.83871 35.7715 5.83871 25C5.83871 14.2285 14.881 5.46875 26 5.46875C37.119 5.46875 46.1613 14.2285 46.1613 25C46.1613 35.7715 37.119 44.5312 26 44.5312ZM17.9355 23.4375C19.7198 23.4375 21.1613 22.041 21.1613 20.3125C21.1613 18.584 19.7198 17.1875 17.9355 17.1875C16.1512 17.1875 14.7097 18.584 14.7097 20.3125C14.7097 22.041 16.1512 23.4375 17.9355 23.4375ZM34.0645 23.4375C35.8488 23.4375 37.2903 22.041 37.2903 20.3125C37.2903 18.584 35.8488 17.1875 34.0645 17.1875C32.2802 17.1875 30.8387 18.584 30.8387 20.3125C30.8387 22.041 32.2802 23.4375 34.0645 23.4375ZM34.4677 30.5273C32.371 32.9688 29.2762 34.375 26 34.375C22.7238 34.375 19.629 32.9785 17.5323 30.5273C16.6754 29.5313 15.1431 29.4043 14.125 30.2246C13.0968 31.0547 12.9657 32.5293 13.8125 33.5254C16.8367 37.041 21.2823 39.0527 26 39.0527C30.7177 39.0527 35.1633 37.041 38.1875 33.5254C39.0444 32.5293 38.9032 31.0547 37.875 30.2246C36.8569 29.4043 35.3246 29.5313 34.4677 30.5273V30.5273Z" fill="#ADFF00"/>
</g>
<defs>
<filter id="filter0_d" x="0" y="0" width="52" height="52" filterUnits="userSpaceOnUse" color-interpolation-filters="sRGB">
<feFlood flood-opacity="0" result="BackgroundImageFix"/>
<feColorMatrix in="SourceAlpha" type="matrix" values="0 0 0 0 0 0 0 0 0 0 0 0 0 0 0 0 0 0 127 0"/>
<feOffset dy="1"/>
<feGaussianBlur stdDeviation="0.5"/>
<feColorMatrix type="matrix" values="0 0 0 0 0 0 0 0 0 0 0 0 0 0 0 0 0 0 0.25 0"/>
<feBlend mode="normal" in2="BackgroundImageFix" result="effect1_dropShadow"/>
<feBlend mode="normal" in="SourceGraphic" in2="effect1_dropShadow" result="shape"/>
</filter>
</defs>
</svg>
